<svg viewBox="0 0 64 64" xmlns="http://www.w3.org/2000/svg">
  <defs></defs>
  <path d="M0 0h64v64H0z" style="fill: rgb(0, 4, 255);"></path>
  <g fill="currentColor" transform="matrix(3.444635, 0, 0, 3.444635, 4.442921, 4.442921)" style=""></g>
  <path d="M 16.271 17.481 C 14.267 17.481 12.641 19.107 12.641 21.111 C 12.641 22.252 13.178 23.326 14.093 24.014 L 30.548 36.357 C 31.411 36.999 32.591 36.999 33.452 36.357 L 49.908 24.014 C 50.823 23.326 51.36 22.252 51.36 21.111 C 51.36 19.107 49.734 17.481 47.73 17.481 L 16.271 17.481 Z M 12.641 25.951 L 12.641 41.68 C 12.641 44.35 14.812 46.52 17.481 46.52 L 46.52 46.52 C 49.19 46.52 51.36 44.35 51.36 41.68 L 51.36 25.951 L 34.905 38.292 C 33.18 39.586 30.821 39.586 29.097 38.292 L 12.641 25.951 Z" style="fill: rgb(255, 255, 255);"></path>
</svg>
